<svg width="16" height="16" viewBox="0 0 16 16" fill="none" xmlns="http://www.w3.org/2000/svg">
<g clip-path="url(#clip0_9_4)">
<path d="M8.002 0C5.831 0 5.558 0.01 4.705 0.048C3.852 0.088 3.271 0.222 2.762 0.42C2.22784 0.620326 1.74414 0.935398 1.345 1.343C0.937397 1.74214 0.622324 2.22584 0.421999 2.76C0.223999 3.268 0.0889989 3.85 0.0499989 4.7C0.0119989 5.555 0.0019989 5.827 0.0019989 8.001C0.0019989 10.173 0.0119989 10.445 0.0499989 11.298C0.0899989 12.15 0.223999 12.731 0.421999 13.24C0.626999 13.766 0.899999 14.212 1.345 14.657C1.789 15.102 2.235 15.376 2.761 15.58C3.271 15.778 3.851 15.913 4.703 15.952C5.557 15.99 5.829 16 8.002 16C10.175 16 10.446 15.99 11.3 15.952C12.151 15.912 12.734 15.778 13.243 15.58C13.7768 15.3795 14.2601 15.0645 14.659 14.657C15.104 14.212 15.377 13.766 15.582 13.24C15.779 12.731 15.914 12.15 15.954 11.298C15.992 10.445 16.002 10.173 16.002 8C16.002 5.827 15.992 5.555 15.954 4.701C15.914 3.85 15.779 3.268 15.582 2.76C15.3817 2.22584 15.0666 1.74214 14.659 1.343C14.2599 0.935398 13.7762 0.620326 13.242 0.42C12.732 0.222 12.15 0.087 11.299 0.048C10.445 0.01 10.174 0 8 0H8.002ZM7.285 1.442H8.003C10.139 1.442 10.392 1.449 11.235 1.488C12.015 1.523 12.439 1.654 12.721 1.763C13.094 1.908 13.361 2.082 13.641 2.362C13.921 2.642 14.094 2.908 14.239 3.282C14.349 3.563 14.479 3.987 14.514 4.767C14.553 5.61 14.561 5.863 14.561 7.998C14.561 10.133 14.553 10.387 14.514 11.23C14.479 12.01 14.348 12.433 14.239 12.715C14.1098 13.0619 13.9052 13.3758 13.64 13.634C13.36 13.914 13.094 14.087 12.72 14.232C12.44 14.342 12.016 14.472 11.235 14.508C10.392 14.546 10.139 14.555 8.003 14.555C5.867 14.555 5.613 14.546 4.77 14.508C3.99 14.472 3.567 14.342 3.285 14.232C2.93783 14.1033 2.6236 13.899 2.365 13.634C2.09927 13.3756 1.89433 13.0614 1.765 12.714C1.656 12.433 1.525 12.009 1.49 11.229C1.452 10.386 1.444 10.133 1.444 7.996C1.444 5.859 1.452 5.608 1.49 4.765C1.526 3.985 1.656 3.561 1.766 3.279C1.911 2.906 2.085 2.639 2.365 2.359C2.645 2.079 2.911 1.906 3.285 1.761C3.567 1.651 3.99 1.521 4.77 1.485C5.508 1.451 5.794 1.441 7.285 1.44V1.442ZM12.273 2.77C12.1469 2.77 12.0221 2.79483 11.9056 2.84308C11.7891 2.89132 11.6833 2.96203 11.5942 3.05118C11.505 3.14032 11.4343 3.24615 11.3861 3.36262C11.3378 3.4791 11.313 3.60393 11.313 3.73C11.313 3.85607 11.3378 3.9809 11.3861 4.09738C11.4343 4.21385 11.505 4.31968 11.5942 4.40882C11.6833 4.49797 11.7891 4.56868 11.9056 4.61692C12.0221 4.66517 12.1469 4.69 12.273 4.69C12.5276 4.69 12.7718 4.58886 12.9518 4.40882C13.1319 4.22879 13.233 3.98461 13.233 3.73C13.233 3.47539 13.1319 3.23121 12.9518 3.05118C12.7718 2.87114 12.5276 2.77 12.273 2.77ZM8.003 3.892C7.45807 3.8835 6.91689 3.98349 6.41098 4.18614C5.90506 4.3888 5.44451 4.69007 5.05615 5.07242C4.66779 5.45478 4.35936 5.91057 4.14884 6.41326C3.93832 6.91595 3.8299 7.4555 3.8299 8.0005C3.8299 8.5455 3.93832 9.08505 4.14884 9.58774C4.35936 10.0904 4.66779 10.5462 5.05615 10.9286C5.44451 11.3109 5.90506 11.6122 6.41098 11.8149C6.91689 12.0175 7.45807 12.1175 8.003 12.109C9.08154 12.0922 10.1102 11.6519 10.867 10.8833C11.6237 10.1146 12.0479 9.07917 12.0479 8.0005C12.0479 6.92183 11.6237 5.88641 10.867 5.11775C10.1102 4.34909 9.08154 3.90883 8.003 3.892ZM8.003 5.333C8.35323 5.333 8.70004 5.40198 9.02362 5.53601C9.34719 5.67004 9.6412 5.86649 9.88885 6.11415C10.1365 6.3618 10.333 6.65581 10.467 6.97938C10.601 7.30296 10.67 7.64976 10.67 8C10.67 8.35024 10.601 8.69704 10.467 9.02062C10.333 9.34419 10.1365 9.6382 9.88885 9.88585C9.6412 10.1335 9.34719 10.33 9.02362 10.464C8.70004 10.598 8.35323 10.667 8.003 10.667C7.29567 10.667 6.6173 10.386 6.11715 9.88585C5.61699 9.38569 5.336 8.70733 5.336 8C5.336 7.29267 5.61699 6.61431 6.11715 6.11415C6.6173 5.61399 7.29567 5.333 8.003 5.333Z" fill="black"/>
</g>
<defs>
<clipPath id="clip0_9_4">
<rect width="16" height="16" fill="white" transform="translate(0.0019989)"/>
</clipPath>
</defs>
</svg>
