<svg width="1440" height="311" viewBox="0 0 1440 311" fill="none" xmlns="http://www.w3.org/2000/svg">
<path d="M0 205.066L20 179.117C40 153.556 80 101.075 120 80.6656C160 60.2562 200 69.975 240 106.615C280 142.866 320 205.066 360 194.667C400 184.656 440 101.075 480 70.2665C520 38.875 560 60.2562 600 96.2156C640 132.175 680 184.656 720 215.465C760 246.856 800 256.575 840 262.115C880 267.266 920 267.266 960 241.317C1000 215.756 1040 163.275 1080 142.866C1120 122.456 1160 132.175 1200 142.866C1240 153.556 1280 163.275 1320 168.815C1360 173.966 1400 173.966 1420 173.966H1440V18.4656H1420C1400 18.4656 1360 18.4656 1320 18.4656C1280 18.4656 1240 18.4656 1200 18.4656C1160 18.4656 1120 18.4656 1080 18.4656C1040 18.4656 1000 18.4656 960 18.4656C920 18.4656 880 18.4656 840 18.4656C800 18.4656 760 18.4656 720 18.4656C680 18.4656 640 18.4656 600 18.4656C560 18.4656 520 18.4656 480 18.4656C440 18.4656 400 18.4656 360 18.4656C320 18.4656 280 18.4656 240 18.4656C200 18.4656 160 18.4656 120 18.4656C80 18.4656 40 18.4656 20 18.4656H0V205.066Z" fill="#3499CC"/>
</svg>
